<?xml version="1.0" encoding="utf-8"?>
<!-- Generator: Adobe Illustrator 16.0.0, SVG Export Plug-In . SVG Version: 6.00 Build 0)  -->
<!DOCTYPE svg PUBLIC "-//W3C//DTD SVG 1.1//EN" "http://www.w3.org/Graphics/SVG/1.1/DTD/svg11.dtd">
<svg version="1.1" id="Layer_1" xmlns="http://www.w3.org/2000/svg" xmlns:xlink="http://www.w3.org/1999/xlink" x="0px" y="0px"
	 width="288px" height="338px" viewBox="0 0 288 338" enable-background="new 0 0 288 338" xml:space="preserve">
<path fill="#020289" d="M134.333,303c0,0,0-44.999,0-49.666s0-61.998,0-67.665S136,150.896,136,150.896v-3.894
	c0,0-2.333,0.667-4.667-1.333s2.333-12.667,2.333-12.667l-2.987-1.667l2.66-3.333v-1.667h-2.66c0,0,2-8,2.66-10s2.66-5,2.66-5
	v-9.667h-2.66v-5.667l-4.673,2.333l1.667,2.333l-6.667,1.333l-3,0.333v1.667v2.333v2.667l4.667,2.333l3-3v5.667
	c0,0,2.333,5.333,0,5.333s-2.333,0-2.333,0l-0.333-4.333h-5v-2.667l-2.333-4.667l-3,0.333h-1.667c0,0-6.333,4.333-9,7.333
	S97,126.668,97,126.668l-1.667,1c0,0-2.709,3.752-4.668,5.981c-0.518,0.59-0.983,1.073-1.332,1.352c0,0,1.333,5,2.333,5s3,2,2,4.333
	s-4.333,4-4.333,4s-1.667-2-2.667-3s0-3.333,0-3.333l-3.333-0.333c0,0-9,7.772-11,9.386s-6.333,0.053-7.333,0s-1-0.053-1-0.053
	l-2.333-4c0,0-0.333-4,0-4s0.333,0,0.333,0l1.667,1.333L67,143.668c0,0-1.333,0-1.667,2.333S65,148.335,65,148.335
	s0.101,1.332,5.333,0.667s10.333-7.667,10.333-7.667S82,137.668,84,137.668s2,0,2,0s-2-1-4.333-2s-2.333-1-2.333-1s-1.667-3,0-3.667
	S81,130.335,81,130.335l1.333,1.333h6.333c0,0,4.333-3,5-5.333s0.667-2.333,0.667-2.333l-2.667-1.333c0,0-5-1.667-3.667-2.333
	s1.333-0.667,1.333-0.667l2.333,0.667c0,0-2-4.333-1-5.333s1-1,1-1l3,7.667l4.093-1.333c0,0,3.908-8,9.574-11.333
	s5.667-3.333,5.667-3.333s0-3.667,1-4s1-0.333,1-0.333s1.667-1.332,2.667-3.332s1-2,1-2l0,0c0,0-3,2.667-5,2.667s-2,0-2,0l-8,5
	c0,0-1.333,5.333-3.333,6.333s-2,1-2,1s-1.667,1-3,0.333S95,110.669,95,110.669s-2.667,1.333-3.333,0S91,109.336,91,109.336
	s-10.667,3-12.667,5.333s0.666,9.334-0.667,11.667s-5.667,5-6.667,3s1-8,2.333-10S75,114.669,75,114.669s-4,2-6.667,1.667
	s-2.667-0.333-2.667-0.333s-3.667,3.667-2.667,8s-4.333,5.333-4.333,5.333s-4,3-7.333,0s0-10,0-10S37,120.003,33,118.003
	s-3.667-3.667-3.667-7.667s1.667-6,1.667-6s-1.333-4.667,2-3.333l1.333,2.333c0,0,2.667-0.333,2.667,1.667s-3.667,1.667-3.667,1.667
	l-2,4.333c0,0-0.667,4,2.667,4s3.333,0,3.333,0s4.333-1.667,6-1.333S45,112.003,45,112.003l2,3.667l6.667,1.333c0,0,2.333-2.667,4-3
	s1.667-0.333,1.667-0.333L63,114.336c0,0-1.333-2.334-0.667-4.667c0,0-4.667-1-8.333,0s-3.667,1-3.667,1s-3.667,3-3,0
	s0.667-3,0.667-3s-9.667-1.333-12.333-7S33,95.003,33,95.003s-0.667-1-1-2.333s0.333-2.666,2.667-3.333S37,88.669,37,88.669
	s2.333-1.667,1.667,1.333s-2.333,5-2.333,5s0,2.333,1,3.333c0,0,1.333-1.667,2-3.667s0-4,3-4.333s5,0.667,5,0.667s-0.333,3.667,1,5
	s3,1.667,5.333,1.667s1.667,4.333,1.667,4.333s3.333-3,6-2c0,0,0-2.667,2.333-3.667s2.333-1,2.333-1l2.333,2.333l5.333-2.332
	c0,0-1.667-1.667-3-2s-3,1-6.333-2s-3.333-3-3.333-3s-7.333-3.334-4-4.667s3.333-1.333,3.333-1.333h2l-3-1.333
	c0,0-4.333-1.667-7.333-2.667c0,0-5,2-4.333,0s-6,0.333-3.333-2.667s1.333,0,1.333,0s-1-1.667-3-4.667s-2-3-2-3s-6,2.333-4.667,0
	s1.333-2.333,1.333-2.333s-2.667-4.333,0.333-3.667s3,0.667,3,0.667S37.333,59.337,40,58.337s2.667-1,2.667-1s4.333-0.333,5,3.667
	s0.667,5.333,0.667,5.333s3.667-0.333,7,0.667s-4-5,0.333-5s4.333,0,4.333,0s-1,5,1.333,6.333s2.667,3,2.667,3l3.667-1
	c0,0-2-3,0-2.667s2,0.333,2,0.333l3.667,4.667c0,0,2-1.333,4.667-2.333s2.667-1,2.667-1s-2,3.667-0.333,3S82,71.67,82,71.67
	l0.664-2.667L86,69.67c0,0,1.333-0.667,2.667,0S90,70.337,90,70.337s6.667-2.667,11-2.667c0,0-0.667-3.333,1.333-3.667
	s2-0.333,2-0.333L107,65.337l-0.667-3.667l-4.333-1c0,0-14.339,2-19.336,2s-14.663-1.667-17.33-3s-4.667-2.34-4.667-2.34L59,55.67
	c0,0-0.333,1.667-3.333,1.667s-6.333,0-6-1.667S50,54.004,50,54.004l3-1.667c0,0-6-3-5.667-4s1.333-2.333,1.333-2.333
	s-1-3.667,3.667-2.667s4.667,1,4.667,1s-2-4.667,0-5.667s2-1,2-1l3-4.666c0,0,2.667-3.667,5-2.667s3.667,3.667,3.667,3.667
	s4-3.333,6.333-2c0,0-1.333-3.333,0.333-3.667c0,0-7.333-1.667-5.333-4s3.333-3.667,3.333-3.667s6.327-1,7.33,0s1.336,4,1.336,4
	l5.333-1.333c0,0-5-3-4-5.333s1-3.667,5.667-3.333s8.333,1.667,9.667,3S102,19.004,102,19.004s2.333,5,3.667,3.333
	S108,18.671,108,18.671s-7.667-1.769-5.333-4.051s6-2.616,6-2.616l6,2.667c0,0,13-0.666,11.333,0.667s-1.667,1.333-1.667,1.333
	l6,0.333c0,0-2.333-4.667,2-1.333c0,0,4.667-3.333,6.667-3.667s4,2.667,4,2.667l5.667,1.333c0,0-1.667-4.385,1.333-4.026
	s3,0.359,3,0.359s4.333,2.333,4.333,3.333l3,0.333c0,0-0.667-5.094,3-4.047s5.666,4.046,5,5.713c0,0,5.667-0.333,6.667,2.333
	s1,2.667,1,2.667s8.333-1,10,0.333c0,0,2.667-1.667,7,1s7,5.667,7,5.667s4.667-1,7,5.333c0,0,5-1.333,6,0s2.667,2.667,2.667,2.667
	s4.666-0.333,4.666,2.667s0,3,0,3s4.667,1.333,4.667,3s0,5,0,5s4.667,3,0,5s-4.667,2-4.667,2s1,2-3,4c0,0-1.666,3.333-3.666,3
	s-2-0.333-2-0.333l-4-3c0,0-4-0.333-2,2s2,2.333,2,2.333l4.666,1.667c0,0,4-2.667,4-0.667s0,2,0,2H221c0,0,0.667-3.667,1.667-3.667
	s1,0,1,0s0.667-4,2-3.333S227,63.004,227,63.004s3.001-1.333,5.667-1.333s2.666,0,2.666,0s3.667,3.667,2.667,7s-1,3.333-1,3.333
	s-0.654,2.667,1.173,4c0,0,3.827,0.333,1.827,4.333c0,0,4.156,4.333,0.578,5.333s-3.578,1-3.578,1l-2,0.333
	c0,0,1.334,4.333-0.333,4.333s-2.334-3.667-2.334-3.667s-10-0.667-14-1.667s-9-2.333-9-2.333s2.334,4.667,1.334,6.333
	s-1,1.667-1,1.667s3.333,1.667,1.333,5s-2,3.333-2,3.333s3.667,0,6.667,1.667s3,1.667,3,1.667s1-6,1-7.333s1.999-3.333,2.666-1.333
	s1,7,1,7l12.667-1c0,0,0-2.333,3-2.333s3.031-3.667,3.031-3.667s-3.364-4-1.364-4.333s2-0.333,2-0.333H247c0,0,4,3,3,4.667
	s-1,1.667-1,1.667s-0.666,7.333-4.333,7.333s-3.667,0-3.667,0s-1,3-3,0l-3.667-0.667c0,0-9.332,0.667-10.666,1
	s-1.334,0.333-1.334,0.333S219,108.004,217,106.004s-2-2-2-2l-6.667-1c0,0-7.666,0.333-8.666-1.333l1,1.667l2.333,1.667
	c0,0,2.333-2,4,0.667l1.667,2c0,0,2-1,5,1.667l2.333,0.667c0,0,4.001-3.667,4.667-1.667s0.666,2,0.666,2s-1.666,6.667-3.333,6.333
	s-8.333-1.333-7-2.667s1.333-1.333,1.333-1.333l0,0l-3-2.667c0,0-2.666,2-4.333,0s-1.667-2-1.667-2s0.001,5.333-5.666,2.333
	l-2-1.667H194c0,0-1.001,4.333-2.667,3.667s-2.666-2-2.666-2l-1.334-0.333v3l5.334,3.333c0,0,2.334-4,5-3s2.666,1,2.666,1l-4,3.333
	l4,2.333c0,0,0.334-2.333,2.667-2s2.333,0.333,2.333,0.333l3.667,4c0,0,5.667,0.333,7.667,0.333s2,0,2,0l0.666,2L231,124.004
	c0,0,8.667-2,9-3.333s0.333-1.333,0.333-1.333l0.334-1.667v-4.667h1.666c0,0,1.666-2.333,4-2.333s3.827,1.333,3.827,1.333v3.667
	c0,0,3.173,1.333,1.84,3.333s-1.333,2-1.333,2l-6-0.333c0,0-0.667,4-2.667,2c0,0-4.667,3-9.667,4s-10.666,0.333-10.666,0.333
	s-2.001,3.667-4.334,4.667s-9.332,2.333-11.666-0.667s-10.334-10-10.334-10l-1-1.333c0,0-3.334-0.333-4-1.333s-7-6-7-6l-4.333-2
	c0,0-2.001-1-3.667,0s-1.666,1-1.666,1l3.666,7c0,0,6.668-1.666,7.334,0.667s0.666,2.333,0.666,2.333s8.001-3.333,6.334,2.667
	L193,126.67c0,0,3.999-0.667,4.333,2.333s0.334,3,0.334,3s2.332,2.667-0.334,2.667s-2.666,0-2.666,0l-1-3c0,0-3.668,0-3.334-2
	s0.334-2,0.334-2s-2.668,0.667-4.334-4l-3-1.333c0,0-2.334,1.667-4,0.333c0,0,6.667,11.333,7.667,13.333
	c0,0,2.666,2.667,1.333,3.667c0,0,3.667,5,3.667,6.333c0,0,8.334-1.884,3.667,4.892c0,0,3.334,3.109,1,4.775c0,0,1,4.667,1,6
	c0,0,1.667,5.333-1,5.333s-2.667,0-2.667,0s-3.667-0.667-2.667-3s1-2.333,1-2.333L188,160.337l3.333-2.929v-1.404
	c0,0-1.397-2.054-2.383-3.516c-0.536-0.795-0.95-1.416-0.95-1.434c0-0.051,4.333,0.051,4.333,0s-5-9.384-5-9.384s-3.667-3-2-4.333
	l-6.666-8.667c0,0-2.334,0.333-2.667-2.333s-0.333-2.667-0.333-2.667L175,121.337l-2-2.667c0,0-0.666,12.667-0.333,13.667
	s0.333,1,0.333,1l3.333,4.333c0,0,3.668,2.333,6.334,1s1,5,1,5s2.334,6.784-1,7.225s-5,0-5,0s-2,0.108-3.667-2.225
	s-1.667-2.333-1.667-2.333s-4.666,0-5.666-3.333s-1-3.333-1-3.333l0.666-1.667c0,0,1.333,2.667,3,1.667s0.667-4,0.667-4l-1-2v-2
	l1.667-2c0,0,0-10.333,0-12s0-1.667,0-1.667S168,116.337,167,113.67s-1-2.667-1-2.667l-2-2l-1.333-1.667l-2,3
	c0,0-2.334,0.667-3.667-1s-1.333-1.667-1.333-1.667l1.333-3v-1.333c0,0-1.875,1.667-3.604,0c-1.729-1.667-1.729-1.667-1.729-1.667
	v-1.333h-5v10.667c0,0,0.333,3.666,0,6.333L147,121.67c0,0,1.333,3,1.333,5.333s0,2.333,0,2.333v3.667c0,0,0.333,5.333,0.333,7.667
	s0,5,0,5s1.333,2.435,0,5.384c0,0,2.333,1.283,2.333,3.616s0,2.333,0,2.333l-0.667,3.667l0.333,2.665l-0.333,12L150,224.002
	c0,0,1.333,33.332,1.667,35.999s1.729,39.333,1.729,39.333v6.333c0,0-16.729,1-19.062,0V303z"/>
<path fill="#FFFFFF" d="M103.5,100c0,0-3.25-2.25-4.25,0s-1,2.25-1,2.25L92.5,105c0,0-0.5-2.25,0-3.75s4-3.75,4-3.75l10.25-5h3
	l-1.5,2.25"/>
<path fill="#FFFFFF" d="M127.5,98.75"/>
<path fill="#FFFFFF" d="M67,108.75c0,0-0.75,3,2.5,3.25s3.25,0.25,3.25,0.25H75c0,0,6.25-2.75,7.5-3.5s1.25-0.75,1.25-0.75l1.5-1.25
	c0,0,2.5,2.25,2.5,0s0-2.25,0-2.25s-2.5-2.5-3.25,0.5c0,0-2.25,3.523-3.5,2.887s-1.25-0.637-1.25-0.637l-3.75,2.5
	c0,0,0,1.25-1.75,1.25s-1.75,0-1.75,0s-3.5,0-4-1.75S67,108.75,67,108.75z"/>
<path fill="#FFFFFF" d="M114.25,95.25c0,0,4.75-1.25,6.75-2.75s2-1.5,2-1.5l1.25-3.75c0,0-4.75,0.5-5,0s-0.25-0.5-0.25-0.5
	l-1.75,1.5l2,0.75c0,0,1.25-1,2.5,0.5S118,91,118,91h-2.25L114.25,95.25z"/>
<path fill="#FFFFFF" d="M127.5,78.25c0,0-6,2-7,3.25s-1,1.25-1,1.25v1.75c0,0,2.75,0.75,4,0s4-2.958,4-2.958V78.25z"/>
<path fill="#FFFFFF" d="M146,96.75l3,2c0,0,2.25-1,5,1.25s2.75,2.25,2.75,2.25l2.25-1.5c0,0-4.5-4-6.5-4s-2,0-2,0l-4.5-1.5V96.75z"
	/>
<path fill="#FFFFFF" d="M144.75,91c0,0,2.75,2.75,5.5,2.75s2.75,0,2.75,0l3.75,3h3.5l-1.25-1.5v-1.375c0,0-2,3.125-3.25,0
	s-1.25-3.125-1.25-3.125L144.75,91z"/>
<path fill="#FFFFFF" d="M162.5,93.75c0,0,1.25,3,3,3s3.5,0,3.5,0s-1,4,1.25,4s2.25,0,2.25,0l3.25-3.5c0,0-7.451-1.789-10-2
	S162.5,93.75,162.5,93.75z"/>
<path fill="#FFFFFF" d="M162.5,90.75c0,0,4.25,2.5,6.625,3s6.625,1.5,6.625,1.5h3.5c0,0,0.75,1,0,2s-0.75,1-0.75,1s-2.75,3-2.75,4
	s-3,2.75-1.5,2.75s2.5,0,2.5,0h2.833c0,0,1.917,0.047,4.167-1.477S186,102,186,102s1.75,0.297,2.75,1.523s1,1.227,1,1.227
	s4,1.75,4.75,1.5s2.5-3.203,1.25-2.727s-2.25,0-2.25,0s-2.25,3.477-4.25-4.773c0,0-2-0.5-6.5-3.5s-18.25-8.5-18.25-8.5
	S160.605,86.499,162.5,90.75z"/>
<path fill="#FFFFFF" d="M146,86.747v2.503c0,0,6-0.25,8,0c0,0,0.25-1.5-1.5-2.5s-1.75-1-1.75-1S147.75,86.994,146,86.747z"/>
<path fill="#FFFFFF" d="M127.5,87.5c0,0,1.25-1.833,2.5-2.667s3.75,0,3.75,0s-1.5,1.417-3.125,2.667S127.5,87.5,127.5,87.5z"/>
<path fill="#FFFFFF" d="M133.75,90c0,0,0.5-5.25,2.75-4.25C136.5,85.75,140.25,86.25,133.75,90z"/>
<path fill="#FFFFFF" d="M132.25,73c0,0,1.826-1.25,3.413-1.25v-2C135.663,69.75,129.75,68,132.25,73z"/>
<path fill="#FFFFFF" d="M63.5,102.25c0,0,4.75,1.75,4.75,0s0-1.75,0-1.75s3.25-1.25,3.25,0s1.5,2.528,1.5,2.528s-1,2.222,2,1.972
	s5.25-2.518,5.25-2.518v-1.732h2.25c0,0,2.25-1.25,0-2S80.25,98,80.25,98l-5-2.75c0,0-5,4-7,3.5s-2-0.5-2-0.5
	S67.25,102.5,63.5,102.25z"/>
<path fill="#FFFFFF" d="M86.25,96.511c0,0-0.049-0.543,0.048-1.256c0.123-0.895,0.478-2.059,1.452-2.755c1.75-1.25,3,2.005,3,2.005
	l1.528,2.745c0,0,6.472-2.75,7.472-3.5s1-0.75,1-0.75l-4.25-3l-0.25-3.25c0,0-5.5,4-6.5,4S86.976,89,86.238,91"/>
<path fill="#FFFFFF" d="M101.014,84.833v1.426c0,0,2.736,2.741,2.736,2.991s2.5,0.584,3.5-2.208s1-2.792,1-2.792l-1-2.708h2.5V79.5
	C109.75,79.5,101.014,83.408,101.014,84.833z"/>
<path fill="#FFFFFF" d="M150.006,75c0,0,2.285,2.5,3.389,3.25S154.5,79,154.5,79s0.75-0.5,0-2S150.513,73,150.006,75z"/>
<path fill="#FFFFFF" d="M165.75,81.542v1.208v1.706l3.375,1.804l6.625,2.991c0,0-1.75-3.5-3-3.5s-2-0.917-2-0.917"/>
<path fill="#FFFFFF" d="M108.25,78.25l-10.5,5c0,0-2.694,1.75-5.472,2.5L96,82C96,82,106.75,77,108.25,78.25z"/>
<path fill="#FFFFFF" d="M71.75,81.542c0,0-0.5,2.37,0,2.914S74,87.75,75.5,87.5s1.837-2.971,1.837-2.971L80,81.9h1
	c0,0-1.25,5.6,0,5.6s8-2.089,8.75-3.044S95,79.5,95,79.5l1-1.451c0,0-2.75,0.049-5.5,0S87.75,78,87.75,78s-1,2.75-2.75,1.5
	s-1.75-1.25-1.75-1.25H82c0,0-0.75,4.75-2.75,1.25c0,0-4.5-0.5-5.75,0S71.75,81.542,71.75,81.542z"/>
<path fill="#FFFFFF" d="M97.75,79c0,0,3-4.488,5.75-4.744s3.75,0,3.75,0s1.25,2,0,2.372S97.75,79,97.75,79z"/>
<path fill="#FFFFFF" d="M159,76.628c0,0,1.931,1.024,3.445,1.734c0.665,0.312,1.25,0.562,1.555,0.638
	c0.5,0.125,2.122,1.127,3.651,2.066c1.533,0.941,2.974,1.82,3.099,1.691c0.25-0.258,1-1.216,1-1.216S160,74.756,159,76.628z"/>
<path fill="#FFFFFF" d="M202.25,84.456c0,0-0.5,2.906-1.5,3.6s-4.563-0.556-4.563-0.556s-1.438,1.75-2.938,1.75
	s-1.5-3.854-1.5-3.854v-5.86c0,0,4.75-1.464,5.25,0S197.5,81,197.5,81s8.25,0.06,6.5,1.758S202.25,84.456,202.25,84.456z"/>
<path fill="#FFFFFF" d="M154.833,73c0,0-0.083-2.047,2.917-1.773s3,0.273,3,0.273l4.625,2.756c0,0-1.914,0.006-3.395,0
	S156.166,72.5,154.833,73z"/>
<path fill="#FFFFFF" d="M130.625,66.5c-0.625,1.75,3.922,0.75,3.023,0S130.625,66.5,130.625,66.5z"/>
<path fill="#FFFFFF" d="M135.663,64.5c0,0,0.663,1.889,0,2.319S133.576,64.25,135.663,64.5z"/>
<path fill="#FFFFFF" d="M54.75,76.301c0,0,2,0.949,3.75,1.949s1.75,1,1.75,1s1.75-2.647,3.25-2.949S65,76,65,76
	S53,72.353,54.75,76.301z"/>
<path fill="#FFFFFF" d="M197.997,75.5c0,0,2.753,1.465,4.003,1.357s1.25-0.107,1.25-0.107s1.25,1.5,2.25,1.5s1.75-1.647,2.5-1.949
	S208.75,76,208.75,76s0.25,2,1.75,2.25s2.25-0.25,2.25-0.25l2,0.25l2.5-1.393l1.25,1.462c0,0-0.25-0.967,1.5-2.019
	s1.75-1.051,1.75-1.051V73l-1-0.27c0,0-1.5,0.77-4,0.27s-2.5-1.799-2.5-1.799l-2.75-1.748c0,0-1,3.007-4.5,3.277
	s-4.25-1.503-4.25-1.503s-3.756,2.233-4.753,1.503S197,72,197,72S196.781,74.917,197.997,75.5z"/>
<path fill="#FFFFFF" d="M76.25,76.857c0,0,4.527,0.535,7.514-0.286s2.986-0.821,2.986-0.821S79,74.215,76.25,76.857z"/>
<polygon fill="#FFFFFF" points="95,75.307 102.778,72.73 100.264,72.73 93.494,74.465 "/>
<path fill="#FFFFFF" d="M170.75,71.201l5,1.799c0,0,0.75-3.594-1-3.547S170.75,71.201,170.75,71.201z"/>
<path fill="#FFFFFF" d="M62,50.5c0,0,1,4.75,3,4.75s2,0,2,0s1.5-2.5,0-3.75s-1.5-1.25-1.5-1.25l-2-1.25L62,50.5z"/>
<path fill="#FFFFFF" d="M67.667,57.25c0,0,5.083,2.5,8.583,2.5s18.5,0,18.5,0s-10.834-0.5-13.542-3.25S78.5,53.75,78.5,53.75
	s-0.5,3-2.25,3S67.667,57.25,67.667,57.25z"/>
<path fill="#FFFFFF" d="M92.278,52.125c0,0,0.722-1.875,5.472-1.875s4.75,0,4.75,0s3.25,1.25,2,1.875s-1.25,0.625-1.25,0.625
	s-6,1.25-7.25,1S92.278,52.125,92.278,52.125z"/>
<path fill="#FFFFFF" d="M98.532,56.75c0,0-3.477-1.934,4.246-2.967s5.028,2.967,5.028,2.967S99.814,58,98.532,58
	S98.532,56.75,98.532,56.75z"/>
<path fill="#FFFFFF" d="M119.25,51.25c0,0,3.25,2.726,4.25,2.363s3.75-1.363,4-2.363S125.75,48,123.375,49
	S119.25,51.25,119.25,51.25z"/>
<path fill="#FFFFFF" d="M154.833,64.485c0,0,3.167,0.235,5.417,0s2.25-1.235,2.25-1.235S153.666,62.221,154.833,64.485z"/>
<path fill="#FFFFFF" d="M154.727,59.75h5.377c0,0,1.896,2.5,5.646,2s6-0.967,6-0.967L173.33,58l-2.58,1.75h-8.25V58
	C162.5,58,153.203,59.75,154.727,59.75z"/>
<path fill="#FFFFFF" d="M159,53.783l1.25,2.023l15.5,0.944l0.16-1.5C175.91,55.25,162,52.816,159,53.783z"/>
<path fill="#FFFFFF" d="M158.613,50.25c0,0,0.344-1.5,1.49-1.25s5.271,0.611,5.271,0.611s7.375,0.035,10.375,1.587s3,1.552,3,1.552
	s3.5-0.75,5.5,0s2,0.75,2,0.75s3,0.25,2.25,1.75s-2.5,1.5-2.5,1.5l-5.25-0.944c0,0-3.25-1.694-5-2.25S165.977,49.75,158.613,50.25z"
	/>
<path fill="#FFFFFF" d="M161.98,47l1.964-1.5c0,0,2.556,1,6.806,1.5s2.58,1.75,2.58,1.75S163.961,46.25,161.98,47z"/>
<path fill="#FFFFFF" d="M202.25,61.816c0,0,1,1.614,0,2.774s-3.256,1.007-4.253,1.083s-4.747,0.173-6.247,0s-6.5,0.297-6.5-1.188
	s3.37-1.469,3.37-1.469s6.849,0.365,8.364-1.201s1.013,0,1.013,0H202.25z"/>
<path fill="#FFFFFF" d="M197.997,59.75c0,0,6.003,0.816,7.753,0.158C205.75,59.908,202.426,56.605,197.997,59.75z"/>
<path fill="#FFFFFF" d="M213,81.9c0,0,2,1.641,5.25,0.871S221.5,82,221.5,82s-2.25-3.179-4.25-2.464S213,81.9,213,81.9z"/>
<path fill="#FFFFFF" d="M205.75,69.453c0,0,3.734,1.203,3.617,0S203.452,68.944,205.75,69.453z"/>
<path fill="#FFFFFF" d="M184.25,68.787c0,0,1.75,1.189,3.5,1.201S189.5,70,189.5,70s1.75-1.027,0-1.264s-1.75-0.236-1.75-0.236"/>
<path fill="#020289" d="M138.5,295.5l-4.167,10.167c0,0-0.667,16.333,0,23.333H154c0,0-0.595-29.477-0.752-33.5"/>
</svg>
